SplineFontDB: 3.0
FontName: ISL_Jupiter_Alphabot_Xen
FullName: ISL_Jupiter_Alphabot_Xen
FamilyName: ISL_Jupiter_Alphabot_Xen
Weight: Book
Copyright: 
Version: 001.003
ItalicAngle: 0
UnderlinePosition: -100
UnderlineWidth: 50
Ascent: 750
Descent: 250
InvalidEm: 0
sfntRevision: 0x000100c5
LayerCount: 2
Layer: 0 1 "Back" 1
Layer: 1 1 "Fore" 0
XUID: [1021 201 1537810308 31748]
StyleMap: 0x0000
FSType: 8
OS2Version: 3
OS2_WeightWidthSlopeOnly: 0
OS2_UseTypoMetrics: 0
CreationTime: 1340454104
ModificationTime: 1441166838
PfmFamily: 17
TTFWeight: 400
TTFWidth: 5
LineGap: 75
VLineGap: 0
Panose: 2 0 5 6 0 0 0 2 0 4
OS2TypoAscent: 750
OS2TypoAOffset: 0
OS2TypoDescent: -250
OS2TypoDOffset: 0
OS2TypoLinegap: 75
OS2WinAscent: 507
OS2WinAOffset: 0
OS2WinDescent: 150
OS2WinDOffset: 0
HheadAscent: 750
HheadAOffset: 0
HheadDescent: -250
HheadDOffset: 0
OS2SubXSize: 700
OS2SubYSize: 650
OS2SubXOff: 0
OS2SubYOff: 140
OS2SupXSize: 700
OS2SupYSize: 650
OS2SupXOff: 0
OS2SupYOff: 477
OS2StrikeYSize: 50
OS2StrikeYPos: 250
OS2CapHeight: 700
OS2XHeight: 500
OS2Vendor: 'ISL '
OS2CodePages: 00000001.00000000
OS2UnicodeRanges: 00000001.00000000.00000000.00000000
MarkAttachClasses: 1
DEI: 91125
TtTable: prep
PUSHW_1
 0
CALL
SVTCA[y-axis]
PUSHW_3
 1
 4
 7
CALL
PUSHW_1
 0
DUP
RCVT
RDTG
ROUND[Black]
RTG
WCVTP
EndTTInstrs
TtTable: fpgm
PUSHW_1
 0
FDEF
MPPEM
PUSHW_1
 9
LT
IF
PUSHB_2
 1
 1
INSTCTRL
EIF
PUSHW_1
 511
SCANCTRL
PUSHW_1
 68
SCVTCI
PUSHW_2
 9
 3
SDS
SDB
ENDF
PUSHW_1
 1
FDEF
DUP
DUP
RCVT
ROUND[Black]
WCVTP
PUSHB_1
 1
ADD
ENDF
PUSHW_1
 2
FDEF
PUSHW_1
 1
LOOPCALL
POP
ENDF
PUSHW_1
 3
FDEF
DUP
GC[cur]
PUSHB_1
 3
CINDEX
GC[cur]
GT
IF
SWAP
EIF
DUP
ROLL
DUP
ROLL
MD[grid]
ABS
ROLL
DUP
GC[cur]
DUP
ROUND[Grey]
SUB
ABS
PUSHB_1
 4
CINDEX
GC[cur]
DUP
ROUND[Grey]
SUB
ABS
GT
IF
SWAP
NEG
ROLL
EIF
MDAP[rnd]
DUP
PUSHB_1
 0
GTEQ
IF
ROUND[Black]
DUP
PUSHB_1
 0
EQ
IF
POP
PUSHB_1
 64
EIF
ELSE
ROUND[Black]
DUP
PUSHB_1
 0
EQ
IF
POP
PUSHB_1
 64
NEG
EIF
EIF
MSIRP[no-rp0]
ENDF
PUSHW_1
 4
FDEF
DUP
GC[cur]
PUSHB_1
 4

StartChar: I
Encoding: 73 73 4
Width: 120
Flags: W
LayerCount: 2
Fore
SplineSet
70 420 m 1,0,-1
 70 0 l 1,1,-1
 0 0 l 1,2,-1
 0 420 l 1,3,-1
 70 420 l 1,0,-1
EndSplineSet
EndChar

StartChar: J
Encoding: 74 74 5
Width: 420
Flags: W
LayerCount: 2
Fore
SplineSet
370 166 m 2,0,1
 370 122 370 122 338 88 c 2,2,-1
 282 32 l 2,3,4
 250 0 250 0 204 0 c 2,5,-1
 0 0 l 1,6,-1
 0 70 l 1,7,-1
 204 70 l 2,8,9
 219 70 219 70 233 82 c 2,10,-1
 288 138 l 2,11,12
 300 148 300 148 300 166 c 2,13,-1
 300 420 l 1,14,-1
 370 420 l 1,15,-1
 370 166 l 2,0,1
EndSplineSet
EndChar

StartChar: L
Encoding: 76 76 6
Width: 520
Flags: W
LayerCount: 2
Fore
SplineSet
470 0 m 1,0,-1
 85 0 l 2,1,2
 49 0 49 0 25 25 c 0,3,4
 0 49 0 49 0 85 c 2,5,-1
 0 420 l 1,6,-1
 70 420 l 1,7,-1
 70 85 l 2,8,9
 70 78 70 78 74 74 c 256,10,11
 78 70 78 70 85 70 c 2,12,-1
 470 70 l 1,13,-1
 470 0 l 1,0,-1
EndSplineSet
EndChar

StartChar: M
Encoding: 77 77 7
Width: 620
Flags: W
LayerCount: 2
Fore
SplineSet
568 371 m 2,0,1
 570 361 570 361 570 350 c 2,2,-1
 570 0 l 1,3,-1
 500 0 l 1,4,-1
 500 339 l 1,5,-1
 341 38 l 2,6,7
 318 -3 318 -3 286 0 c 1,8,9
 252 -5 252 -5 230 37 c 1,10,-1
 229 38 l 1,11,-1
 70 339 l 1,12,-1
 70 0 l 1,13,-1
 0 0 l 1,14,-1
 0 350 l 2,15,16
 0 363 0 363 3 372 c 2,17,-1
 3 373 l 1,18,19
 7 388 7 388 18 400 c 0,20,21
 40 420 40 420 68 420 c 0,22,23
 84 421 84 421 102 410 c 1,24,-1
 103 409 l 2,25,26
 117 400 117 400 126 383 c 2,27,-1
 285 83 l 1,28,-1
 444 383 l 2,29,30
 452 399 452 399 468 410 c 0,31,32
 486 421 486 421 501 420 c 0,33,34
 531 420 531 420 551 400 c 0,35,36
 562 389 562 389 567 373 c 2,37,-1
 568 371 l 2,0,1
EndSplineSet
EndChar

StartChar: P
Encoding: 80 80 8
Width: 520
Flags: W
LayerCount: 2
Fore
SplineSet
470 235 m 2,0,1
 470 200 470 200 445 175 c 256,2,3
 420 150 420 150 385 150 c 2,4,-1
 70 150 l 1,5,-1
 70 0 l 1,6,-1
 0 0 l 1,7,-1
 0 420 l 1,8,-1
 385 420 l 2,9,10
 420 420 420 420 445 395 c 0,11,12
 470 368 470 368 470 335 c 2,13,-1
 470 235 l 2,0,1
70 350 m 1,14,-1
 70 220 l 1,15,-1
 385 220 l 2,16,17
 392 220 392 220 395 224 c 0,18,19
 400 229 400 229 400 235 c 2,20,-1
 400 335 l 2,21,22
 400 341 400 341 396 345 c 0,23,24
 392 350 392 350 385 350 c 2,25,-1
 70 350 l 1,14,-1
EndSplineSet
EndChar

StartChar: Q
Encoding: 81 81 9
Width: 530
Flags: W
LayerCount: 2
Fore
SplineSet
520 70 m 1,0,-1
 520 0 l 1,1,-1
 466 0 l 2,2,3
 427 0 427 0 399 22 c 0,4,5
 395 25 395 25 388 32 c 2,6,-1
 385 35 l 1,7,-1
 382 32 l 2,8,9
 348 0 348 0 304 0 c 2,10,-1
 85 0 l 2,11,12
 49 0 49 0 24 25 c 0,13,14
 0 49 0 49 0 85 c 2,15,-1
 0 335 l 2,16,17
 0 370 0 370 25 395 c 0,18,19
 49 420 49 420 85 420 c 2,20,-1
 385 420 l 2,21,22
 420 420 420 420 445 395 c 256,23,24
 470 370 470 370 470 335 c 2,25,-1
 470 166 l 2,26,27
 470 122 470 122 438 88 c 1,28,-1
 434 85 l 1,29,-1
 438 82 l 2,30,31
 439 79 439 79 442 78 c 2,32,-1
 442 77 l 1,33,34
 452 70 452 70 466 70 c 2,35,-1
 520 70 l 1,0,-1
85 350 m 2,36,37
 78 350 78 350 74 345 c 0,38,39
 70 342 70 342 70 335 c 2,40,-1
 70 85 l 2,41,42
 70 78 70 78 74 74 c 256,43,44
 78 70 78 70 85 70 c 2,45,-1
 304 70 l 2,46,47
 320 70 320 70 332 82 c 2,48,-1
 335 85 l 1,49,-1
 286 135 l 1,50,-1
 335 184 l 1,51,-1
 385 134 l 1,52,-1
 388 138 l 2,53,54
 400 148 400 148 400 166 c 2,55,-1
 400 335 l 2,56,57
 400 342 400 342 395 345 c 0,58,59
 392 350 392 350 385 350 c 2,60,-1
 85 350 l 2,36,37
EndSplineSet
EndChar

StartChar: S
Encoding: 83 83 10
Width: 520
Flags: W
LayerCount: 2
Fore
SplineSet
457 350 m 1,0,-1
 85 350 l 2,1,2
 78 350 78 350 74 345 c 0,3,4
 70 342 70 342 70 335 c 2,5,-1
 70 260 l 2,6,7
 70 253 70 253 74 250 c 0,8,9
 78 245 78 245 85 245 c 2,10,-1
 385 245 l 2,11,12
 420 245 420 245 445 220 c 256,13,14
 470 195 470 195 470 160 c 2,15,-1
 470 85 l 2,16,17
 470 49 470 49 445 25 c 0,18,19
 420 0 420 0 385 0 c 2,20,-1
 12 0 l 1,21,-1
 12 70 l 1,22,-1
 385 70 l 2,23,24
 391 70 391 70 395 74 c 0,25,26
 400 79 400 79 400 85 c 2,27,-1
 400 160 l 2,28,29
 400 167 400 167 395 170 c 0,30,31
 390 175 390 175 385 175 c 2,32,-1
 85 175 l 2,33,34
 49 175 49 175 24 200 c 0,35,36
 0 224 0 224 0 260 c 2,37,-1
 0 335 l 2,38,39
 0 370 0 370 25 395 c 0,40,41
 49 420 49 420 85 420 c 2,42,-1
 457 420 l 1,43,-1
 457 350 l 1,0,-1
EndSplineSet
EndChar

StartChar: T
Encoding: 84 84 11
Width: 520
Flags: W
LayerCount: 2
Fore
SplineSet
0 420 m 1,0,-1
 470 420 l 1,1,-1
 470 350 l 1,2,-1
 270 350 l 1,3,-1
 270 0 l 1,4,-1
 200 0 l 1,5,-1
 200 350 l 1,6,-1
 0 350 l 1,7,-1
 0 420 l 1,0,-1
EndSplineSet
EndChar

StartChar: W
Encoding: 87 87 12
Width: 620
Flags: W
LayerCount: 2
Fore
SplineSet
570 420 m 1,0,-1
 570 70 l 2,1,2
 570 40 570 40 549 21 c 0,3,4
 528 0 528 0 499 0 c 256,5,6
 470 0 470 0 450 20 c 2,7,-1
 285 185 l 1,8,-1
 119 19 l 2,9,10
 99 0 99 0 70 0 c 256,11,12
 41 0 41 0 20 21 c 0,13,14
 0 41 0 41 0 70 c 2,15,-1
 0 420 l 1,16,-1
 70 420 l 1,17,-1
 70 70 l 1,18,-1
 236 235 l 2,19,20
 256 257 256 257 285 255 c 0,21,22
 315 255 315 255 335 235 c 2,23,-1
 499 70 l 1,24,-1
 500 70 l 1,25,-1
 500 420 l 1,26,-1
 570 420 l 1,0,-1
EndSplineSet
EndChar

StartChar: U
Encoding: 85 85 13
Width: 520
Flags: W
LayerCount: 2
Fore
SplineSet
70 420 m 1,0,-1
 70 85 l 2,1,2
 70 78 70 78 74 74 c 256,3,4
 78 70 78 70 85 70 c 2,5,-1
 385 70 l 2,6,7
 391 70 391 70 395 74 c 0,8,9
 400 79 400 79 400 85 c 2,10,-1
 400 420 l 1,11,-1
 470 420 l 1,12,-1
 470 85 l 2,13,14
 470 49 470 49 445 25 c 0,15,16
 420 0 420 0 385 0 c 2,17,-1
 85 0 l 2,18,19
 49 0 49 0 25 25 c 0,20,21
 0 49 0 49 0 85 c 2,22,-1
 0 420 l 1,23,-1
 70 420 l 1,0,-1
EndSplineSet
EndChar

StartChar: V
Encoding: 86 86 14
Width: 520
Flags: W
LayerCount: 2
Fore
SplineSet
470 420 m 1,0,-1
 470 245 l 2,1,2
 470 242 470 242 470 238.5 c 128,-1,3
 470 235 470 235 469 232 c 2,4,-1
 469 230 l 1,5,6
 465 195 465 195 437 167 c 2,7,-1
 295 25 l 2,8,9
 270 0 270 0 235 0 c 256,10,11
 200 0 200 0 175 25 c 2,12,-1
 32 167 l 2,13,14
 6 193 6 193 1 230 c 0,15,16
 0 234 0 234 0 238 c 128,-1,17
 0 242 0 242 0 245 c 2,18,-1
 0 420 l 1,19,-1
 70 420 l 1,20,-1
 70 245 l 1,21,-1
 70 241 l 1,22,-1
 70 240 l 2,23,24
 73 225 73 225 82 217 c 2,25,-1
 224 74 l 2,26,27
 228 70 228 70 235 70 c 0,28,29
 241 70 241 70 245 74 c 2,30,-1
 388 217 l 2,31,32
 397 226 397 226 400 240 c 2,33,-1
 400 245 l 1,34,-1
 400 420 l 1,35,-1
 470 420 l 1,0,-1
EndSplineSet
EndChar

StartChar: X
Encoding: 88 88 15
Width: 570
Flags: W
LayerCount: 2
Fore
SplineSet
54 420 m 2,0,1
 118 420 118 420 163 370 c 2,2,-1
 260 262 l 1,3,-1
 356 370 l 2,4,5
 403 420 403 420 466 420 c 2,6,-1
 520 420 l 1,7,-1
 520 350 l 1,8,-1
 466 350 l 2,9,10
 433 350 433 350 409 323 c 2,11,-1
 307 210 l 1,12,-1
 409 97 l 2,13,14
 433 70 433 70 466 70 c 2,15,-1
 520 70 l 1,16,-1
 520 0 l 1,17,-1
 466 0 l 2,18,19
 402 0 402 0 356 50 c 2,20,-1
 260 158 l 1,21,-1
 163 50 l 2,22,23
 119 0 119 0 54 0 c 2,24,-1
 0 0 l 1,25,-1
 0 70 l 1,26,-1
 54 70 l 2,27,28
 87 70 87 70 111 97 c 2,29,-1
 213 210 l 1,30,-1
 111 323 l 2,31,32
 87 350 87 350 54 350 c 2,33,-1
 0 350 l 1,34,-1
 0 420 l 1,35,-1
 54 420 l 2,0,1
EndSplineSet
EndChar

StartChar: Y
Encoding: 89 89 16
Width: 520
Flags: W
LayerCount: 2
Fore
SplineSet
400 420 m 1,0,-1
 470 420 l 1,1,-1
 470 366 l 2,2,3
 470 357 470 357 469 352 c 2,4,-1
 469 351 l 1,5,6
 465 316 465 316 438 288 c 2,7,-1
 270 120 l 1,8,-1
 270 0 l 1,9,-1
 200 0 l 1,10,-1
 200 120 l 1,11,-1
 32 288 l 2,12,13
 6 314 6 314 1 350 c 1,14,-1
 1 351 l 2,15,16
 0 356 0 356 0 366 c 2,17,-1
 0 420 l 1,18,-1
 70 420 l 1,19,-1
 70 366 l 1,20,-1
 70 361 l 1,21,-1
 70 360 l 2,22,23
 71 348 71 348 81 338 c 2,24,-1
 235 184 l 1,25,-1
 388 338 l 2,26,27
 393 343 393 343 395.5 348.5 c 128,-1,28
 398 354 398 354 400 360 c 2,29,-1
 400 366 l 1,30,-1
 400 420 l 1,0,-1
EndSplineSet
EndChar

StartChar: Z
Encoding: 90 90 17
Width: 520
Flags: W
LayerCount: 2
Fore
SplineSet
452 401 m 1,0,-1
 453 401 l 1,1,2
 470 381 470 381 470 357 c 0,3,4
 473 330 473 330 444 309 c 1,5,-1
 443 308 l 1,6,-1
 92 70 l 1,7,-1
 470 70 l 1,8,-1
 470 0 l 1,9,-1
 63 0 l 2,10,11
 37 0 37 0 19 18 c 1,12,-1
 18 18 l 1,13,14
 0 37 0 37 0 62 c 0,15,16
 -2 90 -2 90 27 110 c 1,17,-1
 28 111 l 1,18,-1
 379 350 l 1,19,-1
 0 350 l 1,20,-1
 0 420 l 1,21,-1
 407 420 l 2,22,23
 434 420 434 420 451 401 c 1,24,-1
 452 401 l 1,0,-1
EndSplineSet
EndChar

StartChar: two
Encoding: 50 50 18
Width: 432
VWidth: 720
Flags: W
LayerCount: 2
Fore
SplineSet
0 288 m 1,0,-1
 0 360 l 1,1,-1
 288 360 l 1,2,-1
 360 288 l 1,3,-1
 360 216 l 1,4,-1
 288 144 l 1,5,-1
 102 144 l 1,6,-1
 72 114 l 1,7,-1
 72 72 l 1,8,-1
 360 72 l 1,9,-1
 360 0 l 1,10,-1
 0 0 l 1,11,-1
 0 144 l 1,12,-1
 72 216 l 1,13,-1
 258 216 l 1,14,-1
 288 246 l 1,15,-1
 288 258 l 1,16,-1
 258 288 l 1,17,-1
 0 288 l 1,0,-1
EndSplineSet
EndChar

StartChar: three
Encoding: 51 51 19
Width: 432
VWidth: 720
Flags: W
LayerCount: 2
Fore
SplineSet
0 288 m 1,0,-1
 0 360 l 1,1,-1
 288 360 l 1,2,-1
 360 288 l 1,3,-1
 360 216 l 1,4,-1
 324 180 l 1,5,-1
 360 144 l 1,6,-1
 360 72 l 1,7,-1
 288 0 l 1,8,-1
 0 0 l 1,9,-1
 0 72 l 1,10,-1
 258 72 l 1,11,-1
 288 102 l 1,12,-1
 288 114 l 1,13,-1
 258 144 l 1,14,-1
 72 144 l 1,15,-1
 72 216 l 1,16,-1
 258 216 l 1,17,-1
 288 246 l 1,18,-1
 288 258 l 1,19,-1
 258 288 l 1,20,-1
 0 288 l 1,0,-1
EndSplineSet
EndChar

StartChar: four
Encoding: 52 52 20
Width: 432
VWidth: 720
Flags: W
LayerCount: 2
Fore
SplineSet
73 144 m 1,0,-1
 288 144 l 1,1,-1
 288 360 l 1,2,-1
 360 360 l 1,3,-1
 360 0 l 1,4,-1
 288 0 l 1,5,-1
 288 72 l 1,6,-1
 0 72 l 1,7,-1
 0 216 l 1,8,-1
 0 216 l 1,9,-1
 0 216 l 1,10,-1
 144 360 l 1,11,-1
 195 309 l 1,12,-1
 73 187 l 1,13,-1
 73 144 l 1,0,-1
EndSplineSet
EndChar

StartChar: five
Encoding: 53 53 21
Width: 432
VWidth: 720
Flags: W
LayerCount: 2
Fore
SplineSet
0 72 m 1,0,-1
 258 72 l 1,1,-1
 288 102 l 1,2,-1
 288 114 l 1,3,-1
 258 144 l 1,4,-1
 72 144 l 1,5,-1
 0 216 l 1,6,-1
 0 360 l 1,7,-1
 360 360 l 1,8,-1
 360 288 l 1,9,-1
 72 288 l 1,10,-1
 72 246 l 1,11,-1
 102 216 l 1,12,-1
 288 216 l 1,13,-1
 360 144 l 1,14,-1
 360 72 l 1,15,-1
 288 0 l 1,16,-1
 0 0 l 1,17,-1
 0 72 l 1,0,-1
EndSplineSet
EndChar

StartChar: six
Encoding: 54 54 22
Width: 432
VWidth: 720
Flags: W
LayerCount: 2
Fore
SplineSet
102 72 m 1,0,-1
 258 72 l 1,1,-1
 288 102 l 1,2,-1
 288 114 l 1,3,-1
 258 144 l 1,4,-1
 72 144 l 1,5,-1
 72 102 l 1,6,-1
 102 72 l 1,0,-1
102 288 m 1,7,-1
 72 258 l 1,8,-1
 72 216 l 1,9,-1
 288 216 l 1,10,-1
 360 144 l 1,11,-1
 360 72 l 1,12,-1
 288 0 l 1,13,-1
 72 0 l 1,14,-1
 0 72 l 1,15,-1
 0 288 l 1,16,-1
 72 360 l 1,17,-1
 360 360 l 1,18,-1
 360 288 l 1,19,-1
 102 288 l 1,7,-1
EndSplineSet
EndChar

StartChar: seven
Encoding: 55 55 23
Width: 432
VWidth: 720
Flags: W
LayerCount: 2
Fore
SplineSet
0 360 m 1,0,-1
 360 360 l 1,1,-1
 360 216 l 1,2,-1
 144 0 l 1,3,-1
 42 0 l 1,4,-1
 293 251 l 1,5,-1
 293 288 l 1,6,-1
 0 288 l 1,7,-1
 0 360 l 1,0,-1
EndSplineSet
EndChar

StartChar: eight
Encoding: 56 56 24
Width: 432
VWidth: 720
Flags: W
LayerCount: 2
Fore
SplineSet
102 216 m 1,0,-1
 258 216 l 1,1,-1
 288 246 l 1,2,-1
 288 258 l 1,3,-1
 258 288 l 1,4,-1
 102 288 l 1,5,-1
 72 258 l 1,6,-1
 72 246 l 1,7,-1
 102 216 l 1,0,-1
72 114 m 1,8,-1
 72 102 l 1,9,-1
 102 72 l 1,10,-1
 258 72 l 1,11,-1
 288 102 l 1,12,-1
 288 114 l 1,13,-1
 258 144 l 1,14,-1
 102 144 l 1,15,-1
 72 114 l 1,8,-1
0 72 m 1,16,-1
 0 144 l 1,17,-1
 36 180 l 1,18,-1
 0 216 l 1,19,-1
 0 288 l 1,20,-1
 72 360 l 1,21,-1
 288 360 l 1,22,-1
 360 288 l 1,23,-1
 360 216 l 1,24,-1
 324 180 l 1,25,-1
 360 144 l 1,26,-1
 360 72 l 1,27,-1
 288 0 l 1,28,-1
 72 0 l 1,29,-1
 0 72 l 1,16,-1
EndSplineSet
EndChar

StartChar: nine
Encoding: 57 57 25
Width: 432
VWidth: 720
Flags: W
LayerCount: 2
Fore
SplineSet
258 288 m 1,0,-1
 102 288 l 1,1,-1
 72 258 l 1,2,-1
 72 246 l 1,3,-1
 102 216 l 1,4,-1
 288 216 l 1,5,-1
 288 258 l 1,6,-1
 258 288 l 1,0,-1
258 72 m 1,7,-1
 288 102 l 1,8,-1
 288 144 l 1,9,-1
 72 144 l 1,10,-1
 0 216 l 1,11,-1
 0 288 l 1,12,-1
 72 360 l 1,13,-1
 288 360 l 1,14,-1
 360 288 l 1,15,-1
 360 72 l 1,16,-1
 288 0 l 1,17,-1
 0 0 l 1,18,-1
 0 72 l 1,19,-1
 258 72 l 1,7,-1
EndSplineSet
EndChar

StartChar: zero
Encoding: 48 48 26
Width: 432
VWidth: 720
Flags: W
LayerCount: 2
Fore
SplineSet
288 237 m 1,0,-1
 123 72 l 1,1,-1
 258 72 l 1,2,-1
 288 102 l 1,3,-1
 288 237 l 1,0,-1
72 123 m 1,4,-1
 237 288 l 1,5,-1
 102 288 l 1,6,-1
 72 258 l 1,7,-1
 72 123 l 1,4,-1
288 0 m 1,8,-1
 72 0 l 1,9,-1
 0 72 l 1,10,-1
 0 288 l 1,11,-1
 72 360 l 1,12,-1
 288 360 l 1,13,-1
 360 288 l 1,14,-1
 360 72 l 1,15,-1
 288 0 l 1,8,-1
EndSplineSet
EndChar

StartChar: one
Encoding: 49 49 27
Width: 288
VWidth: 720
Flags: W
LayerCount: 2
Fore
SplineSet
216 360 m 1,0,-1
 216 0 l 1,1,-1
 144 0 l 1,2,-1
 144 288 l 1,3,-1
 102 288 l 1,4,-1
 51 237 l 1,5,-1
 0 288 l 1,6,-1
 72 360 l 1,7,-1
 216 360 l 1,0,-1
EndSplineSet
EndChar

StartChar: E
Encoding: 69 69 28
Width: 520
Flags: W
LayerCount: 2
Fore
SplineSet
74 345 m 0,0,1
 70 341 70 341 70 335 c 2,2,-1
 70 245 l 1,3,-1
 370 245 l 1,4,-1
 370 175 l 1,5,-1
 70 175 l 1,6,-1
 70 85 l 2,7,8
 70 78 70 78 74 74 c 256,9,10
 78 70 78 70 85 70 c 2,11,-1
 470 70 l 1,12,-1
 470 0 l 1,13,-1
 85 0 l 2,14,15
 49 0 49 0 25 25 c 0,16,17
 0 49 0 49 0 85 c 2,18,-1
 0 335 l 2,19,20
 0 370 0 370 25 395 c 0,21,22
 49 420 49 420 85 420 c 2,23,-1
 470 420 l 1,24,-1
 470 350 l 1,25,-1
 85 350 l 2,26,27
 78 350 78 350 74 345 c 0,0,1
EndSplineSet
EndChar

StartChar: D
Encoding: 68 68 29
Width: 520
Flags: W
LayerCount: 2
Fore
SplineSet
470 85 m 2,0,1
 470 49 470 49 445 25 c 0,2,3
 420 0 420 0 385 0 c 2,4,-1
 0 0 l 1,5,-1
 0 420 l 1,6,-1
 385 420 l 2,7,8
 420 420 420 420 445 395 c 256,9,10
 470 370 470 370 470 335 c 2,11,-1
 470 85 l 2,0,1
395 345 m 0,12,13
 392 350 392 350 385 350 c 2,14,-1
 70 350 l 1,15,-1
 70 70 l 1,16,-1
 385 70 l 2,17,18
 392 70 392 70 395 74 c 0,19,20
 400 79 400 79 400 85 c 2,21,-1
 400 335 l 2,22,23
 400 340 400 340 395 345 c 0,12,13
EndSplineSet
EndChar

StartChar: F
Encoding: 70 70 30
Width: 520
Flags: W
LayerCount: 2
Fore
SplineSet
470 350 m 1,0,-1
 85 350 l 2,1,2
 78 350 78 350 74 345 c 0,3,4
 70 341 70 341 70 335 c 2,5,-1
 70 245 l 1,6,-1
 370 245 l 1,7,-1
 370 175 l 1,8,-1
 70 175 l 1,9,-1
 70 0 l 1,10,-1
 0 0 l 1,11,-1
 0 335 l 2,12,13
 0 370 0 370 25 395 c 0,14,15
 49 420 49 420 85 420 c 2,16,-1
 470 420 l 1,17,-1
 470 350 l 1,0,-1
EndSplineSet
EndChar

StartChar: period
Encoding: 46 46 31
Width: 120
Flags: W
LayerCount: 2
Fore
SplineSet
0 70 m 1,0,-1
 70 70 l 1,1,-1
 70 0 l 1,2,-1
 0 0 l 1,3,-1
 0 70 l 1,0,-1
EndSplineSet
EndChar

StartChar: colon
Encoding: 58 58 32
Width: 120
Flags: W
LayerCount: 2
Fore
SplineSet
0 70 m 1,0,-1
 70 70 l 1,1,-1
 70 0 l 1,2,-1
 0 0 l 1,3,-1
 0 70 l 1,0,-1
70 370 m 1,4,-1
 70 300 l 1,5,-1
 0 300 l 1,6,-1
 0 370 l 1,7,-1
 70 370 l 1,4,-1
EndSplineSet
EndChar

StartChar: semicolon
Encoding: 59 59 33
Width: 120
Flags: W
LayerCount: 2
Fore
SplineSet
70 13 m 2,0,1
 70 -31 70 -31 38 -65 c 2,2,-1
 13 -90 l 1,3,-1
 -37 -40 l 1,4,-1
 -12 -15 l 2,5,6
 0 -5 0 -5 0 13 c 2,7,-1
 0 70 l 1,8,-1
 70 70 l 1,9,-1
 70 13 l 2,0,1
70 370 m 1,10,-1
 70 300 l 1,11,-1
 0 300 l 1,12,-1
 0 370 l 1,13,-1
 70 370 l 1,10,-1
EndSplineSet
EndChar

StartChar: comma
Encoding: 44 44 34
Width: 120
Flags: W
LayerCount: 2
Fore
SplineSet
70 13 m 2,0,1
 70 -31 70 -31 38 -65 c 2,2,-1
 13 -90 l 1,3,-1
 -37 -40 l 1,4,-1
 -12 -15 l 2,5,6
 0 -5 0 -5 0 13 c 2,7,-1
 0 70 l 1,8,-1
 70 70 l 1,9,-1
 70 13 l 2,0,1
EndSplineSet
EndChar

StartChar: R
Encoding: 82 82 35
Width: 520
Flags: W
LayerCount: 2
Fore
SplineSet
445 395 m 256,0,1
 470 370 470 370 470 335 c 2,2,-1
 470 233 l 2,3,4
 469 199 469 199 445 174 c 0,5,6
 419 150 419 150 385 150 c 2,7,-1
 300 150 l 1,8,-1
 470 14 l 1,9,-1
 470 0 l 1,10,-1
 375 0 l 1,11,-1
 188 150 l 1,12,-1
 70 150 l 1,13,-1
 70 0 l 1,14,-1
 0 0 l 1,15,-1
 0 420 l 1,16,-1
 385 420 l 2,17,18
 420 420 420 420 445 395 c 256,0,1
70 350 m 1,19,-1
 70 220 l 1,20,-1
 385 220 l 2,21,22
 391 220 391 220 395 224 c 0,23,24
 400 229 400 229 400 235 c 2,25,-1
 400 335 l 2,26,27
 400 340 400 340 395 345 c 0,28,29
 391 350 391 350 385 350 c 2,30,-1
 70 350 l 1,19,-1
EndSplineSet
EndChar

StartChar: C
Encoding: 67 67 36
Width: 520
Flags: W
LayerCount: 2
Fore
SplineSet
470 350 m 1,0,-1
 85 350 l 2,1,2
 78 350 78 350 74 345 c 0,3,4
 70 342 70 342 70 335 c 2,5,-1
 70 85 l 2,6,7
 70 78 70 78 74 74 c 256,8,9
 78 70 78 70 85 70 c 2,10,-1
 470 70 l 1,11,-1
 470 0 l 1,12,-1
 85 0 l 2,13,14
 49 0 49 0 24 25 c 0,15,16
 0 49 0 49 0 85 c 2,17,-1
 0 335 l 2,18,19
 0 370 0 370 25 395 c 0,20,21
 49 420 49 420 85 420 c 2,22,-1
 470 420 l 1,23,-1
 470 350 l 1,0,-1
EndSplineSet
EndChar

StartChar: A
Encoding: 65 65 37
Width: 520
Flags: W
LayerCount: 2
Fore
SplineSet
469 188 m 2,0,1
 469 185 469 185 469.5 181.5 c 128,-1,2
 470 178 470 178 470 175 c 2,3,-1
 470 0 l 1,4,-1
 400 0 l 1,5,-1
 400 130 l 1,6,-1
 70 130 l 1,7,-1
 70 0 l 1,8,-1
 0 0 l 1,9,-1
 0 175 l 2,10,11
 0 184 0 184 1 189 c 2,12,-1
 1 190 l 1,13,14
 6 227 6 227 32 252 c 2,15,-1
 174 395 l 2,16,17
 199 420 199 420 235 420 c 0,18,19
 270 420 270 420 296 395 c 2,20,-1
 438 252 l 2,21,22
 465 225 465 225 469 189 c 1,23,-1
 469 188 l 2,0,1
245 345 m 2,24,25
 242 350 242 350 235 350 c 2,26,-1
 234 350 l 2,27,28
 228 350 228 350 224 345 c 2,29,-1
 81 203 l 2,30,31
 81 202 81 202 80 201.5 c 128,-1,32
 79 201 79 201 79 200 c 2,33,-1
 391 200 l 1,34,-1
 388 203 l 1,35,-1
 245 345 l 2,24,25
EndSplineSet
EndChar

StartChar: N
Encoding: 78 78 38
Width: 570
Flags: W
LayerCount: 2
Fore
SplineSet
520 420 m 1,0,-1
 520 70 l 2,1,2
 520 41 520 41 499 20 c 0,3,4
 477 0 477 0 449 0 c 0,5,6
 420 0 420 0 400 20 c 2,7,-1
 71 350 l 1,8,-1
 70 350 l 1,9,-1
 70 0 l 1,10,-1
 0 0 l 1,11,-1
 0 350 l 2,12,13
 0 378 0 378 21 399 c 0,14,15
 40 420 40 420 71 420 c 0,16,17
 97 420 97 420 120 400 c 2,18,-1
 449 70 l 1,19,-1
 450 70 l 1,20,-1
 450 420 l 1,21,-1
 520 420 l 1,0,-1
EndSplineSet
EndChar

StartChar: K
Encoding: 75 75 39
Width: 520
Flags: W
LayerCount: 2
Fore
SplineSet
470 410 m 1,0,-1
 199 210 l 1,1,-1
 470 10 l 1,2,-1
 470 0 l 1,3,-1
 366 0 l 1,4,-1
 129 175 l 1,5,-1
 70 175 l 1,6,-1
 70 0 l 1,7,-1
 0 0 l 1,8,-1
 0 420 l 1,9,-1
 70 420 l 1,10,-1
 70 245 l 1,11,-1
 129 245 l 1,12,-1
 366 420 l 1,13,-1
 470 420 l 1,14,-1
 470 410 l 1,0,-1
EndSplineSet
EndChar

StartChar: O
Encoding: 79 79 40
Width: 520
Flags: W
LayerCount: 2
Fore
SplineSet
438 387 m 0,0,1
 470 355 470 355 470 310 c 2,2,-1
 470 110 l 2,3,4
 470 63 470 63 437 32 c 0,5,6
 405 0 405 0 360 0 c 2,7,-1
 110 0 l 2,8,9
 66 0 66 0 32 32 c 0,10,11
 0 63 0 63 0 110 c 2,12,-1
 0 310 l 2,13,14
 0 356 0 356 32 388 c 0,15,16
 66 420 66 420 110 420 c 2,17,-1
 360 420 l 2,18,19
 405 420 405 420 438 387 c 0,0,1
388 338 m 256,20,21
 376 350 376 350 360 350 c 2,22,-1
 110 350 l 2,23,24
 93 350 93 350 82 339 c 0,25,26
 70 327 70 327 70 310 c 2,27,-1
 70 110 l 2,28,29
 70 93 70 93 81 82 c 0,30,31
 93 70 93 70 110 70 c 2,32,-1
 360 70 l 2,33,34
 375 70 375 70 388 81 c 0,35,36
 400 93 400 93 400 110 c 2,37,-1
 400 310 l 2,38,39
 400 326 400 326 388 338 c 256,20,21
EndSplineSet
EndChar

StartChar: G
Encoding: 71 71 41
Width: 520
Flags: W
LayerCount: 2
Fore
SplineSet
70 85 m 2,0,1
 70 78 70 78 74 74 c 256,2,3
 78 70 78 70 85 70 c 2,4,-1
 385 70 l 2,5,6
 392 70 392 70 395 74 c 0,7,8
 400 79 400 79 400 85 c 2,9,-1
 400 175 l 1,10,-1
 250 175 l 1,11,-1
 250 245 l 1,12,-1
 470 245 l 1,13,-1
 470 85 l 2,14,15
 470 49 470 49 445 25 c 0,16,17
 420 0 420 0 385 0 c 2,18,-1
 85 0 l 2,19,20
 49 0 49 0 24 25 c 0,21,22
 0 49 0 49 0 85 c 2,23,-1
 0 335 l 2,24,25
 0 369 0 369 24 395 c 0,26,27
 49 420 49 420 85 420 c 2,28,-1
 470 420 l 1,29,-1
 470 350 l 1,30,-1
 85 350 l 2,31,32
 78 350 78 350 74 345 c 0,33,34
 70 341 70 341 70 335 c 2,35,-1
 70 85 l 2,0,1
EndSplineSet
EndChar

StartChar: a
Encoding: 97 97 42
Width: 420
Flags: W
LayerCount: 2
Fore
SplineSet
25 320 m 1,0,-1
 285 320 l 2,1,2
 320 320 320 320 345 295 c 0,3,4
 357 282 357 282 363.5 267.5 c 128,-1,5
 370 253 370 253 370 235 c 2,6,-1
 370 0 l 1,7,-1
 85 0 l 2,8,9
 49 0 49 0 24 25 c 0,10,11
 0 49 0 49 0 85 c 2,12,-1
 0 110 l 2,13,14
 0 145 0 145 25 170 c 0,15,16
 49 195 49 195 85 195 c 2,17,-1
 300 195 l 1,18,-1
 300 235 l 2,19,20
 300 239 300 239 299 241 c 128,-1,21
 298 243 298 243 296 245 c 0,22,23
 292 250 292 250 285 250 c 2,24,-1
 25 250 l 1,25,-1
 25 320 l 1,0,-1
85 125 m 2,26,27
 79 125 79 125 74 120 c 0,28,29
 70 116 70 116 70 110 c 2,30,-1
 70 85 l 2,31,32
 70 78 70 78 74 74 c 256,33,34
 78 70 78 70 85 70 c 2,35,-1
 300 70 l 1,36,-1
 300 125 l 1,37,-1
 85 125 l 2,26,27
EndSplineSet
EndChar

StartChar: b
Encoding: 98 98 43
Width: 420
Flags: W
LayerCount: 2
Fore
SplineSet
70 320 m 1,0,-1
 285 320 l 2,1,2
 320 320 320 320 345 295 c 0,3,4
 357 282 357 282 363.5 267.5 c 128,-1,5
 370 253 370 253 370 235 c 2,6,-1
 370 85 l 2,7,8
 370 50 370 50 345 25 c 256,9,10
 320 0 320 0 285 0 c 2,11,-1
 0 0 l 1,12,-1
 0 420 l 1,13,-1
 70 420 l 1,14,-1
 70 320 l 1,0,-1
70 250 m 1,15,-1
 70 70 l 1,16,-1
 285 70 l 2,17,18
 292 70 292 70 296 74 c 0,19,20
 300 80 300 80 300 85 c 2,21,-1
 300 235 l 2,22,23
 300 239 300 239 299 241 c 128,-1,24
 298 243 298 243 296 245 c 0,25,26
 292 250 292 250 285 250 c 2,27,-1
 70 250 l 1,15,-1
EndSplineSet
EndChar

StartChar: c
Encoding: 99 99 44
Width: 420
Flags: W
LayerCount: 2
Fore
SplineSet
70 85 m 2,0,1
 70 78 70 78 74 74 c 256,2,3
 78 70 78 70 85 70 c 2,4,-1
 370 70 l 1,5,-1
 370 0 l 1,6,-1
 85 0 l 2,7,8
 49 0 49 0 24 25 c 0,9,10
 0 49 0 49 0 85 c 2,11,-1
 0 235 l 2,12,13
 0 270 0 270 25 295 c 0,14,15
 49 320 49 320 85 320 c 2,16,-1
 370 320 l 1,17,-1
 370 250 l 1,18,-1
 85 250 l 2,19,20
 78 250 78 250 74 245 c 0,21,22
 70 241 70 241 70 235 c 2,23,-1
 70 85 l 2,0,1
EndSplineSet
EndChar

StartChar: d
Encoding: 100 100 45
Width: 420
Flags: W
LayerCount: 2
Fore
SplineSet
0 235 m 2,0,1
 0 269 0 269 24 295 c 0,2,3
 49 320 49 320 85 320 c 2,4,-1
 300 320 l 1,5,-1
 300 420 l 1,6,-1
 370 420 l 1,7,-1
 370 0 l 1,8,-1
 85 0 l 2,9,10
 49 0 49 0 25 25 c 0,11,12
 0 49 0 49 0 85 c 2,13,-1
 0 235 l 2,0,1
74 245 m 0,14,15
 70 241 70 241 70 235 c 2,16,-1
 70 85 l 2,17,18
 70 78 70 78 74 74 c 256,19,20
 78 70 78 70 85 70 c 2,21,-1
 300 70 l 1,22,-1
 300 250 l 1,23,-1
 85 250 l 2,24,25
 78 250 78 250 74 245 c 0,14,15
EndSplineSet
EndChar

StartChar: e
Encoding: 101 101 46
Width: 420
Flags: W
LayerCount: 2
Fore
SplineSet
285 320 m 2,0,1
 320 320 320 320 345 295 c 0,2,3
 357 282 357 282 363.5 267.5 c 128,-1,4
 370 253 370 253 370 235 c 2,5,-1
 370 210 l 2,6,7
 370 175 370 175 345 150 c 256,8,9
 320 125 320 125 285 125 c 2,10,-1
 70 125 l 1,11,-1
 70 85 l 2,12,13
 70 78 70 78 74 74 c 256,14,15
 78 70 78 70 85 70 c 2,16,-1
 345 70 l 1,17,-1
 345 0 l 1,18,-1
 85 0 l 2,19,20
 49 0 49 0 24 25 c 0,21,22
 0 49 0 49 0 85 c 2,23,-1
 0 235 l 2,24,25
 0 270 0 270 25 295 c 0,26,27
 49 320 49 320 85 320 c 2,28,-1
 285 320 l 2,0,1
74 245 m 0,29,30
 70 241 70 241 70 235 c 2,31,-1
 70 195 l 1,32,-1
 285 195 l 2,33,34
 290 195 290 195 296 199 c 0,35,36
 300 205 300 205 300 210 c 2,37,-1
 300 235 l 2,38,39
 300 239 300 239 299 241 c 128,-1,40
 298 243 298 243 296 245 c 0,41,42
 292 250 292 250 285 250 c 2,43,-1
 85 250 l 2,44,45
 78 250 78 250 74 245 c 0,29,30
EndSplineSet
EndChar

StartChar: f
Encoding: 102 102 47
Width: 295
Flags: W
LayerCount: 2
Fore
SplineSet
24 395 m 0,0,1
 49 420 49 420 85 420 c 2,2,-1
 245 420 l 1,3,-1
 245 350 l 1,4,-1
 85 350 l 2,5,6
 78 350 78 350 74 345 c 0,7,8
 70 341 70 341 70 335 c 2,9,-1
 70 270 l 1,10,-1
 195 270 l 1,11,-1
 195 200 l 1,12,-1
 70 200 l 1,13,-1
 70 0 l 1,14,-1
 0 0 l 1,15,-1
 0 200 l 1,16,-1
 -50 200 l 1,17,-1
 -50 270 l 1,18,-1
 0 270 l 1,19,-1
 0 335 l 2,20,21
 0 369 0 369 24 395 c 0,0,1
EndSplineSet
EndChar

StartChar: g
Encoding: 103 103 48
Width: 420
Flags: W
LayerCount: 2
Fore
SplineSet
25 295 m 0,0,1
 49 320 49 320 85 320 c 2,2,-1
 370 320 l 1,3,-1
 370 -65 l 2,4,5
 370 -100 370 -100 345 -125 c 256,6,7
 320 -150 320 -150 285 -150 c 2,8,-1
 25 -150 l 1,9,-1
 25 -80 l 1,10,-1
 285 -80 l 2,11,12
 292 -80 292 -80 296 -76 c 0,13,14
 300 -70 300 -70 300 -65 c 2,15,-1
 300 0 l 1,16,-1
 85 0 l 2,17,18
 49 0 49 0 24 25 c 0,19,20
 0 49 0 49 0 85 c 2,21,-1
 0 235 l 2,22,23
 0 270 0 270 25 295 c 0,0,1
70 85 m 2,24,25
 70 78 70 78 74 74 c 256,26,27
 78 70 78 70 85 70 c 2,28,-1
 300 70 l 1,29,-1
 300 250 l 1,30,-1
 85 250 l 2,31,32
 78 250 78 250 74 245 c 0,33,34
 70 241 70 241 70 235 c 2,35,-1
 70 85 l 2,24,25
EndSplineSet
EndChar

StartChar: h
Encoding: 104 104 49
Width: 420
Flags: W
LayerCount: 2
Fore
SplineSet
70 420 m 1,0,-1
 70 320 l 1,1,-1
 285 320 l 2,2,3
 321 320 321 320 345 295 c 0,4,5
 369 269 369 269 369 235 c 2,6,-1
 369 0 l 1,7,-1
 299 0 l 1,8,-1
 299 235 l 2,9,10
 299 240 299 240 296 245 c 0,11,12
 292 250 292 250 285 250 c 2,13,-1
 70 250 l 1,14,-1
 70 0 l 1,15,-1
 0 0 l 1,16,-1
 0 420 l 1,17,-1
 70 420 l 1,0,-1
EndSplineSet
EndChar

StartChar: i
Encoding: 105 105 50
Width: 120
Flags: W
LayerCount: 2
Fore
SplineSet
70 350 m 1,0,-1
 0 350 l 1,1,-1
 0 420 l 1,2,-1
 70 420 l 1,3,-1
 70 350 l 1,0,-1
70 0 m 1,4,-1
 0 0 l 1,5,-1
 0 320 l 1,6,-1
 70 320 l 1,7,-1
 70 0 l 1,4,-1
EndSplineSet
EndChar

StartChar: j
Encoding: 106 106 51
Width: 120
Flags: W
LayerCount: 2
Fore
SplineSet
70 320 m 1,0,-1
 70 -65 l 2,1,2
 70 -101 70 -101 45 -125 c 0,3,4
 21 -150 21 -150 -15 -150 c 2,5,-1
 -125 -150 l 1,6,-1
 -125 -80 l 1,7,-1
 -15 -80 l 2,8,9
 -8 -80 -8 -80 -4 -76 c 256,10,11
 0 -72 0 -72 0 -65 c 2,12,-1
 0 320 l 1,13,-1
 70 320 l 1,0,-1
0 350 m 1,14,-1
 0 420 l 1,15,-1
 70 420 l 1,16,-1
 70 350 l 1,17,-1
 0 350 l 1,14,-1
EndSplineSet
EndChar

StartChar: k
Encoding: 107 107 52
Width: 420
Flags: W
LayerCount: 2
Fore
SplineSet
370 304 m 1,0,-1
 137 160 l 1,1,-1
 370 16 l 1,2,-1
 370 0 l 1,3,-1
 263 0 l 1,4,-1
 70 119 l 1,5,-1
 70 0 l 1,6,-1
 0 0 l 1,7,-1
 0 420 l 1,8,-1
 70 420 l 1,9,-1
 70 201 l 1,10,-1
 263 320 l 1,11,-1
 370 320 l 1,12,-1
 370 304 l 1,0,-1
EndSplineSet
EndChar

StartChar: l
Encoding: 108 108 53
Width: 120
Flags: W
LayerCount: 2
Fore
SplineSet
70 420 m 1,0,-1
 70 0 l 1,1,-1
 0 0 l 1,2,-1
 0 420 l 1,3,-1
 70 420 l 1,0,-1
EndSplineSet
EndChar

StartChar: m
Encoding: 109 109 54
Width: 620
Flags: W
LayerCount: 2
Fore
SplineSet
246 245 m 0,0,1
 242 250 242 250 235 250 c 2,2,-1
 70 250 l 1,3,-1
 70 0 l 1,4,-1
 0 0 l 1,5,-1
 0 320 l 1,6,-1
 245 320 l 2,7,8
 252 320 252 320 258.5 316 c 128,-1,9
 265 312 265 312 270.5 306 c 128,-1,10
 276 300 276 300 279.5 294 c 128,-1,11
 283 288 283 288 285 284 c 1,12,13
 286 288 286 288 290 294 c 128,-1,14
 294 300 294 300 299.5 306 c 128,-1,15
 305 312 305 312 311.5 316 c 128,-1,16
 318 320 318 320 325 320 c 2,17,-1
 485 320 l 2,18,19
 521 320 521 320 545 295 c 0,20,21
 570 270 570 270 570 235 c 2,22,-1
 570 0 l 1,23,-1
 500 0 l 1,24,-1
 500 235 l 2,25,26
 500 241 500 241 496 245 c 0,27,28
 492 250 492 250 485 250 c 2,29,-1
 335 250 l 2,30,31
 327 250 327 250 325 245 c 0,32,33
 322 243 322 243 320 235 c 2,34,-1
 320 0 l 1,35,-1
 250 0 l 1,36,-1
 250 235 l 2,37,38
 250 241 250 241 246 245 c 0,0,1
EndSplineSet
EndChar

StartChar: n
Encoding: 110 110 55
Width: 420
Flags: W
LayerCount: 2
Fore
SplineSet
0 320 m 1,0,-1
 285 320 l 2,1,2
 321 320 321 320 345 295 c 0,3,4
 370 271 370 271 370 235 c 2,5,-1
 370 0 l 1,6,-1
 300 0 l 1,7,-1
 300 235 l 2,8,9
 300 241 300 241 296 245 c 0,10,11
 292 250 292 250 285 250 c 2,12,-1
 70 250 l 1,13,-1
 70 0 l 1,14,-1
 0 0 l 1,15,-1
 0 320 l 1,0,-1
EndSplineSet
EndChar

StartChar: o
Encoding: 111 111 56
Width: 420
Flags: W
LayerCount: 2
Fore
SplineSet
370 85 m 2,0,1
 370 49 370 49 345 25 c 0,2,3
 321 0 321 0 285 0 c 2,4,-1
 85 0 l 2,5,6
 50 0 50 0 25 25 c 0,7,8
 0 49 0 49 0 85 c 2,9,-1
 0 235 l 2,10,11
 0 270 0 270 25 295 c 256,12,13
 50 320 50 320 85 320 c 2,14,-1
 285 320 l 2,15,16
 321 320 321 320 345 295 c 0,17,18
 370 270 370 270 370 235 c 2,19,-1
 370 85 l 2,0,1
75 245 m 0,20,21
 70 240 70 240 70 235 c 2,22,-1
 70 85 l 2,23,24
 70 80 70 80 74 74 c 0,25,26
 78 70 78 70 85 70 c 2,27,-1
 285 70 l 2,28,29
 292 70 292 70 296 74 c 256,30,31
 300 78 300 78 300 85 c 2,32,-1
 300 235 l 2,33,34
 300 241 300 241 296 245 c 0,35,36
 292 250 292 250 285 250 c 2,37,-1
 85 250 l 2,38,39
 77 250 77 250 75 245 c 0,20,21
EndSplineSet
EndChar

StartChar: p
Encoding: 112 112 57
Width: 420
Flags: W
LayerCount: 2
Fore
SplineSet
370 85 m 2,0,1
 370 50 370 50 345 25 c 256,2,3
 320 0 320 0 285 0 c 2,4,-1
 70 0 l 1,5,-1
 70 -150 l 1,6,-1
 0 -150 l 1,7,-1
 0 320 l 1,8,-1
 285 320 l 2,9,10
 320 320 320 320 345 295 c 0,11,12
 357 282 357 282 363.5 267.5 c 128,-1,13
 370 253 370 253 370 235 c 2,14,-1
 370 85 l 2,0,1
296 245 m 0,15,16
 292 250 292 250 285 250 c 2,17,-1
 70 250 l 1,18,-1
 70 70 l 1,19,-1
 285 70 l 2,20,21
 292 70 292 70 296 74 c 0,22,23
 300 80 300 80 300 85 c 2,24,-1
 300 235 l 2,25,26
 300 239 300 239 299 241 c 128,-1,27
 298 243 298 243 296 245 c 0,15,16
EndSplineSet
EndChar

StartChar: q
Encoding: 113 113 58
Width: 420
Flags: W
LayerCount: 2
Fore
SplineSet
0 235 m 2,0,1
 0 270 0 270 25 295 c 256,2,3
 50 320 50 320 85 320 c 2,4,-1
 370 320 l 1,5,-1
 370 -150 l 1,6,-1
 300 -150 l 1,7,-1
 300 0 l 1,8,-1
 85 0 l 2,9,10
 50 0 50 0 25 25 c 0,11,12
 0 49 0 49 0 85 c 2,13,-1
 0 235 l 2,0,1
74 245 m 0,14,15
 72 243 72 243 71 241 c 128,-1,16
 70 239 70 239 70 235 c 2,17,-1
 70 85 l 2,18,19
 70 80 70 80 74 74 c 0,20,21
 78 70 78 70 85 70 c 2,22,-1
 300 70 l 1,23,-1
 300 250 l 1,24,-1
 85 250 l 2,25,26
 78 250 78 250 74 245 c 0,14,15
EndSplineSet
EndChar

StartChar: r
Encoding: 114 114 59
Width: 370
Flags: W
LayerCount: 2
Fore
SplineSet
70 0 m 1,0,-1
 0 0 l 1,1,-1
 0 235 l 2,2,3
 0 270 0 270 25 295 c 0,4,5
 49 320 49 320 85 320 c 2,6,-1
 320 320 l 1,7,-1
 320 250 l 1,8,-1
 85 250 l 2,9,10
 78 250 78 250 74 245 c 0,11,12
 70 241 70 241 70 235 c 2,13,-1
 70 0 l 1,0,-1
EndSplineSet
EndChar

StartChar: s
Encoding: 115 115 60
Width: 420
Flags: W
LayerCount: 2
Fore
SplineSet
0 235 m 2,0,1
 0 269 0 269 24 295 c 0,2,3
 49 320 49 320 85 320 c 2,4,-1
 345 320 l 1,5,-1
 345 250 l 1,6,-1
 85 250 l 2,7,8
 78 250 78 250 74 245 c 0,9,10
 70 241 70 241 70 235 c 2,11,-1
 70 210 l 2,12,13
 70 203 70 203 74 199 c 0,14,15
 80 195 80 195 85 195 c 2,16,-1
 285 195 l 2,17,18
 320 195 320 195 345 170 c 0,19,20
 357 157 357 157 363.5 142.5 c 128,-1,21
 370 128 370 128 370 110 c 2,22,-1
 370 85 l 2,23,24
 370 50 370 50 345 25 c 256,25,26
 320 0 320 0 285 0 c 2,27,-1
 25 0 l 1,28,-1
 25 70 l 1,29,-1
 285 70 l 2,30,31
 292 70 292 70 296 74 c 0,32,33
 300 80 300 80 300 85 c 2,34,-1
 300 110 l 2,35,36
 300 114 300 114 296 120 c 0,37,38
 291 125 291 125 285 125 c 2,39,-1
 85 125 l 2,40,41
 49 125 49 125 25 150 c 0,42,43
 0 174 0 174 0 210 c 2,44,-1
 0 235 l 2,0,1
EndSplineSet
EndChar

StartChar: t
Encoding: 116 116 61
Width: 295
Flags: W
LayerCount: 2
Fore
SplineSet
-50 320 m 1,0,-1
 0 320 l 1,1,-1
 0 420 l 1,2,-1
 70 420 l 1,3,-1
 70 320 l 1,4,-1
 245 320 l 1,5,-1
 245 250 l 1,6,-1
 70 250 l 1,7,-1
 70 85 l 2,8,9
 70 78 70 78 74 74 c 256,10,11
 78 70 78 70 85 70 c 2,12,-1
 245 70 l 1,13,-1
 245 0 l 1,14,-1
 85 0 l 2,15,16
 49 0 49 0 24 25 c 0,17,18
 0 49 0 49 0 85 c 2,19,-1
 0 250 l 1,20,-1
 -50 250 l 1,21,-1
 -50 320 l 1,0,-1
EndSplineSet
EndChar

StartChar: u
Encoding: 117 117 62
Width: 420
Flags: W
LayerCount: 2
Fore
SplineSet
370 320 m 1,0,-1
 370 84 l 2,1,2
 369 49 369 49 345 25 c 0,3,4
 320 0 320 0 285 0 c 2,5,-1
 85 0 l 2,6,7
 49 0 49 0 25 24 c 0,8,9
 0 49 0 49 0 85 c 2,10,-1
 0 320 l 1,11,-1
 70 320 l 1,12,-1
 70 85 l 2,13,14
 70 78 70 78 74 74 c 256,15,16
 78 70 78 70 85 70 c 2,17,-1
 285 70 l 2,18,19
 292 70 292 70 296 74 c 0,20,21
 300 80 300 80 300 84 c 2,22,-1
 300 320 l 1,23,-1
 370 320 l 1,0,-1
EndSplineSet
EndChar

StartChar: v
Encoding: 118 118 63
Width: 420
Flags: W
LayerCount: 2
Fore
SplineSet
70 320 m 1,0,-1
 70 185 l 1,1,-1
 70 183 l 1,2,-1
 70 182 l 2,3,4
 70 177 70 177 75 172 c 2,5,-1
 183 70 l 1,6,-1
 185 70 l 1,7,-1
 187 70 l 1,8,-1
 295 172 l 1,9,-1
 295 173 l 2,10,11
 298 176 298 176 300 182 c 2,12,-1
 300 185 l 1,13,-1
 300 320 l 1,14,-1
 370 320 l 1,15,-1
 370 185 l 2,16,17
 370 179 370 179 369 175 c 2,18,-1
 369 174 l 1,19,-1
 369 173 l 1,20,21
 364 142 364 142 343 122 c 2,22,-1
 235 20 l 2,23,24
 213 0 213 0 185 0 c 0,25,26
 156 0 156 0 134 20 c 2,27,-1
 27 122 l 2,28,29
 4 143 4 143 0 173 c 1,30,-1
 0 174 l 1,31,-1
 0 185 l 1,32,-1
 0 320 l 1,33,-1
 70 320 l 1,0,-1
EndSplineSet
EndChar

StartChar: w
Encoding: 119 119 64
Width: 470
Flags: W
LayerCount: 2
Fore
SplineSet
69 320 m 1,0,-1
 69 85 l 1,1,-1
 168 185 l 1,2,-1
 168 186 l 1,3,4
 186 204 186 204 209 202 c 2,5,-1
 210 202 l 2,6,7
 235 204 235 204 252 185 c 2,8,-1
 350 85 l 1,9,-1
 350 320 l 1,10,-1
 419 320 l 1,11,-1
 419 60 l 2,12,13
 419 34 419 34 403 18 c 0,14,15
 385 0 385 0 359 0 c 0,16,17
 336 -2 336 -2 318 18 c 2,18,-1
 209 128 l 1,19,-1
 102 17 l 2,20,21
 82 -1 82 -1 60 0 c 0,22,23
 35 0 35 0 17 18 c 0,24,25
 0 34 0 34 0 60 c 2,26,-1
 0 320 l 1,27,-1
 69 320 l 1,0,-1
EndSplineSet
EndChar

StartChar: x
Encoding: 120 120 65
Width: 470
Flags: W
LayerCount: 2
Fore
SplineSet
0 320 m 1,0,-1
 57 320 l 2,1,2
 107 320 107 320 145 281 c 2,3,-1
 210 211 l 1,4,-1
 276 281 l 2,5,6
 312 320 312 320 363 320 c 2,7,-1
 420 320 l 1,8,-1
 420 250 l 1,9,-1
 363 250 l 2,10,11
 343 250 343 250 327 234 c 2,12,-1
 259 160 l 1,13,-1
 327 86 l 2,14,15
 342 70 342 70 363 70 c 2,16,-1
 420 70 l 1,17,-1
 420 0 l 1,18,-1
 363 0 l 2,19,20
 313 -1 313 -1 276 39 c 1,21,-1
 276 38 l 1,22,-1
 210 108 l 1,23,-1
 145 38 l 2,24,25
 106 -1 106 -1 57 0 c 2,26,-1
 0 0 l 1,27,-1
 0 70 l 1,28,-1
 57 70 l 2,29,30
 78 70 78 70 94 86 c 2,31,-1
 162 160 l 1,32,-1
 94 234 l 2,33,34
 76 250 76 250 57 250 c 2,35,-1
 0 250 l 1,36,-1
 0 320 l 1,0,-1
EndSplineSet
EndChar

StartChar: y
Encoding: 121 121 66
Width: 420
Flags: W
LayerCount: 2
Fore
SplineSet
0 320 m 1,0,-1
 74 320 l 1,1,-1
 185 76 l 1,2,-1
 297 320 l 1,3,-1
 370 320 l 1,4,-1
 370 312 l 1,5,-1
 159 -150 l 1,6,-1
 85 -150 l 1,7,-1
 85 -143 l 1,8,-1
 147 -8 l 1,9,-1
 0 312 l 1,10,-1
 0 320 l 1,0,-1
EndSplineSet
EndChar

StartChar: z
Encoding: 122 122 67
Width: 420
Flags: W
LayerCount: 2
Fore
SplineSet
370 0 m 1,0,-1
 56 0 l 2,1,2
 31 0 31 0 19 12 c 2,3,-1
 16 14 l 1,4,5
 0 30 0 30 0 53 c 0,6,7
 1 83 1 83 24 98 c 2,8,-1
 260 250 l 1,9,-1
 0 250 l 1,10,-1
 0 320 l 1,11,-1
 314 320 l 1,12,-1
 323 320 l 1,13,-1
 326 320 l 1,14,-1
 329 319 l 2,15,16
 346 316 346 316 352 307 c 2,17,-1
 354 305 l 2,18,19
 370 290 370 290 370 268 c 0,20,21
 370 234 370 234 347 222 c 2,22,-1
 110 70 l 1,23,-1
 370 70 l 1,24,-1
 370 0 l 1,0,-1
EndSplineSet
EndChar

StartChar: exclam
Encoding: 33 33 68
Width: 120
Flags: W
LayerCount: 2
Fore
SplineSet
5 70 m 1,0,-1
 75 70 l 1,1,-1
 75 0 l 1,2,-1
 5 0 l 1,3,-1
 5 70 l 1,0,-1
0 420 m 1,4,-1
 80 420 l 1,5,-1
 80 310 l 1,6,-1
 65 100 l 1,7,-1
 15 100 l 1,8,-1
 0 310 l 1,9,-1
 0 420 l 1,4,-1
EndSplineSet
EndChar

StartChar: asterisk
Encoding: 42 42 69
Width: 328
Flags: W
LayerCount: 2
Fore
SplineSet
170 472 m 1,0,-1
 170 384 l 1,1,-1
 253 411 l 1,2,-1
 274 345 l 1,3,-1
 192 318 l 1,4,-1
 243 248 l 1,5,-1
 186 207 l 1,6,-1
 135 277 l 1,7,-1
 84 207 l 1,8,-1
 28 247 l 1,9,-1
 78 318 l 1,10,-1
 -4 345 l 1,11,-1
 18 411 l 1,12,-1
 100 384 l 1,13,-1
 100 472 l 1,14,-1
 170 472 l 1,0,-1
EndSplineSet
EndChar

StartChar: at
Encoding: 64 64 70
Width: 670
Flags: W
LayerCount: 2
Fore
SplineSet
70 35 m 2,0,1
 70 17 70 17 82 7 c 0,2,3
 94 -5 94 -5 110 -5 c 2,4,-1
 570 -5 l 1,5,-1
 570 -75 l 1,6,-1
 110 -75 l 2,7,8
 64 -75 64 -75 32 -43 c 256,9,10
 0 -11 0 -11 0 35 c 2,11,-1
 0 385 l 2,12,13
 0 429 0 429 32 463 c 0,14,15
 66 495 66 495 110 495 c 2,16,-1
 510 495 l 2,17,18
 556 495 556 495 588 462 c 0,19,20
 620 431 620 431 620 385 c 2,21,-1
 620 160 l 2,22,23
 620 114 620 114 588 82 c 0,24,25
 557 50 557 50 510 50 c 2,26,-1
 210 50 l 2,27,28
 175 50 175 50 150 75 c 256,29,30
 125 100 125 100 125 135 c 2,31,-1
 125 285 l 2,32,33
 125 320 125 320 150 345 c 256,34,35
 175 370 175 370 210 370 c 2,36,-1
 410 370 l 2,37,38
 446 370 446 370 470 345 c 0,39,40
 495 321 495 321 495 285 c 2,41,-1
 495 120 l 1,42,-1
 510 120 l 2,43,44
 527 120 527 120 538 131 c 0,45,46
 550 143 550 143 550 160 c 2,47,-1
 550 385 l 2,48,49
 550 400 550 400 539 413 c 0,50,51
 527 425 527 425 510 425 c 2,52,-1
 110 425 l 2,53,54
 94 425 94 425 82 413 c 256,55,56
 70 401 70 401 70 385 c 2,57,-1
 70 35 l 2,0,1
421 296 m 0,58,59
 415 300 415 300 410 300 c 2,60,-1
 210 300 l 2,61,62
 204 300 204 300 200 296 c 0,63,64
 195 291 195 291 195 285 c 2,65,-1
 195 135 l 2,66,67
 195 129 195 129 199 125 c 0,68,69
 203 120 203 120 210 120 c 2,70,-1
 425 120 l 1,71,-1
 425 285 l 2,72,73
 425 292 425 292 421 296 c 0,58,59
EndSplineSet
EndChar

StartChar: ampersand
Encoding: 38 38 71
Width: 570
Flags: W
LayerCount: 2
Fore
SplineSet
445 300 m 1,0,-1
 375 300 l 1,1,-1
 375 335 l 2,2,3
 375 342 375 342 371 345 c 0,4,5
 367 350 367 350 360 350 c 2,6,-1
 111 350 l 2,7,8
 105 350 105 350 101 345 c 0,9,10
 96 342 96 342 96 335 c 2,11,-1
 96 310 l 2,12,13
 96 300 96 300 99 293 c 0,14,15
 101 289 101 289 102 288 c 2,16,-1
 206 245 l 1,17,-1
 520 245 l 1,18,-1
 520 175 l 1,19,-1
 470 175 l 1,20,-1
 470 0 l 1,21,-1
 85 0 l 2,22,23
 50 0 50 0 25 24 c 0,24,25
 0 49 0 49 0 85 c 2,26,-1
 0 160 l 2,27,28
 0 195 0 195 25 220 c 0,29,30
 37 232 37 232 52 238 c 1,31,32
 50 241 50 241 47 244 c 0,33,34
 43 249 43 249 40 254 c 128,-1,35
 37 259 37 259 35 264 c 2,36,-1
 35 265 l 1,37,38
 26 284 26 284 26 310 c 2,39,-1
 26 335 l 2,40,41
 26 368 26 368 51 395 c 0,42,43
 76 420 76 420 111 420 c 2,44,-1
 360 420 l 2,45,46
 396 420 396 420 420 395 c 0,47,48
 445 370 445 370 445 335 c 2,49,-1
 445 300 l 1,0,-1
194 175 m 1,50,-1
 194 174 l 1,51,-1
 193 175 l 1,52,-1
 85 175 l 2,53,54
 79 175 79 175 74 170 c 0,55,56
 70 166 70 166 70 160 c 2,57,-1
 70 85 l 2,58,59
 70 79 70 79 75 74 c 0,60,61
 78 70 78 70 85 70 c 2,62,-1
 400 70 l 1,63,-1
 400 175 l 1,64,-1
 194 175 l 1,50,-1
EndSplineSet
EndChar

StartChar: question
Encoding: 63 63 72
Width: 520
Flags: W
LayerCount: 2
Fore
SplineSet
270 0 m 1,0,-1
 200 0 l 1,1,-1
 200 70 l 1,2,-1
 270 70 l 1,3,-1
 270 0 l 1,0,-1
445 395 m 0,4,5
 470 370 470 370 470 335 c 2,6,-1
 470 265 l 2,7,8
 470 229 470 229 445 205 c 0,9,10
 421 180 421 180 385 180 c 2,11,-1
 285 180 l 2,12,13
 279 180 279 180 274 175 c 0,14,15
 270 171 270 171 270 165 c 2,16,-1
 270 100 l 1,17,-1
 200 100 l 1,18,-1
 200 165 l 2,19,20
 200 200 200 200 225 225 c 256,21,22
 250 250 250 250 285 250 c 2,23,-1
 385 250 l 2,24,25
 392 250 392 250 396 254 c 256,26,27
 400 258 400 258 400 265 c 2,28,-1
 400 335 l 2,29,30
 400 342 400 342 396 345 c 0,31,32
 392 350 392 350 385 350 c 2,33,-1
 85 350 l 2,34,35
 78 350 78 350 74 345 c 0,36,37
 70 341 70 341 70 335 c 2,38,-1
 70 300 l 1,39,-1
 0 300 l 1,40,-1
 0 335 l 2,41,42
 0 370 0 370 25 395 c 256,43,44
 50 420 50 420 85 420 c 2,45,-1
 385 420 l 2,46,47
 421 420 421 420 445 395 c 0,4,5
EndSplineSet
EndChar

StartChar: dollar
Encoding: 36 36 73
Width: 520
Flags: W
LayerCount: 2
Fore
SplineSet
200 420 m 1,0,-1
 200 470 l 1,1,-1
 270 470 l 1,2,-1
 270 420 l 1,3,-1
 457 420 l 1,4,-1
 457 350 l 1,5,-1
 85 350 l 2,6,7
 78 350 78 350 75 346 c 0,8,9
 70 341 70 341 70 335 c 2,10,-1
 70 260 l 2,11,12
 70 254 70 254 74 250 c 0,13,14
 79 245 79 245 85 245 c 2,15,-1
 385 245 l 2,16,17
 421 245 421 245 445 220 c 0,18,19
 470 196 470 196 470 160 c 2,20,-1
 470 85 l 2,21,22
 470 50 470 50 445 25 c 0,23,24
 421 0 421 0 385 0 c 2,25,-1
 270 0 l 1,26,-1
 270 -50 l 1,27,-1
 200 -50 l 1,28,-1
 200 0 l 1,29,-1
 12 0 l 1,30,-1
 12 70 l 1,31,-1
 385 70 l 2,32,33
 391 70 391 70 396 75 c 0,34,35
 400 78 400 78 400 85 c 2,36,-1
 400 160 l 2,37,38
 400 167 400 167 396 171 c 256,39,40
 392 175 392 175 385 175 c 2,41,-1
 85 175 l 2,42,43
 50 175 50 175 25 200 c 256,44,45
 0 225 0 225 0 260 c 2,46,-1
 0 335 l 2,47,48
 0 371 0 371 25 396 c 0,49,50
 50 420 50 420 85 420 c 2,51,-1
 200 420 l 1,0,-1
EndSplineSet
EndChar

StartChar: percent
Encoding: 65539 -1 74
Width: 575
Flags: W
LayerCount: 2
Fore
SplineSet
525 403 m 1,0,-1
 85 0 l 1,1,-1
 0 0 l 1,2,-1
 0 17 l 1,3,-1
 440 420 l 1,4,-1
 525 420 l 1,5,-1
 525 403 l 1,0,-1
223 285 m 2,6,7
 223 250 223 250 197 224 c 0,8,9
 173 200 173 200 137 200 c 2,10,-1
 87 200 l 2,11,12
 52 200 52 200 27 225 c 0,13,14
 15 238 15 238 8.5 252.5 c 128,-1,15
 2 267 2 267 2 285 c 2,16,-1
 2 335 l 2,17,18
 2 368 2 368 27 395 c 0,19,20
 52 420 52 420 87 420 c 2,21,-1
 137 420 l 2,22,23
 173 420 173 420 198 395 c 256,24,25
 223 370 223 370 223 335 c 2,26,-1
 223 285 l 2,6,7
148 274 m 0,27,28
 152 277 152 277 152 285 c 2,29,-1
 152 335 l 2,30,31
 152 343 152 343 148 345 c 0,32,33
 144 350 144 350 137 350 c 2,34,-1
 87 350 l 2,35,36
 81 350 81 350 77 345 c 0,37,38
 72 342 72 342 72 335 c 2,39,-1
 72 285 l 2,40,41
 72 279 72 279 77 274 c 0,42,43
 81 270 81 270 87 270 c 2,44,-1
 137 270 l 2,45,46
 144 270 144 270 148 274 c 0,27,28
498 195 m 0,47,48
 522 171 522 171 522 135 c 2,49,-1
 522 85 l 2,50,51
 522 49 522 49 497 24 c 0,52,53
 473 0 473 0 437 0 c 2,54,-1
 387 0 l 2,55,56
 352 0 352 0 327 25 c 0,57,58
 303 49 303 49 303 85 c 2,59,-1
 303 135 l 2,60,61
 303 170 303 170 327 196 c 0,62,63
 352 220 352 220 387 220 c 2,64,-1
 437 220 l 2,65,66
 473 220 473 220 498 195 c 0,47,48
448 145 m 0,67,68
 443 150 443 150 437 150 c 2,69,-1
 387 150 l 2,70,71
 382 150 382 150 377 145 c 0,72,73
 372 142 372 142 372 135 c 2,74,-1
 372 85 l 2,75,76
 372 79 372 79 377 74 c 0,77,78
 381 70 381 70 387 70 c 2,79,-1
 437 70 l 2,80,81
 444 70 444 70 448 74 c 256,82,83
 452 78 452 78 452 85 c 2,84,-1
 452 135 l 2,85,86
 452 142 452 142 448 145 c 0,67,68
EndSplineSet
EndChar

StartChar: plus
Encoding: 43 43 75
Width: 420
Flags: W
LayerCount: 2
Fore
SplineSet
0 245 m 1,0,-1
 150 245 l 1,1,-1
 150 370 l 1,2,-1
 219 370 l 1,3,-1
 219 245 l 1,4,-1
 369 245 l 1,5,-1
 369 175 l 1,6,-1
 219 175 l 1,7,-1
 219 50 l 1,8,-1
 150 50 l 1,9,-1
 150 175 l 1,10,-1
 0 175 l 1,11,-1
 0 245 l 1,0,-1
EndSplineSet
EndChar

StartChar: underscore
Encoding: 95 95 76
Width: 470
Flags: W
LayerCount: 2
Fore
SplineSet
0 70 m 1,0,-1
 420 70 l 1,1,-1
 420 0 l 1,2,-1
 0 0 l 1,3,-1
 0 70 l 1,0,-1
EndSplineSet
EndChar

StartChar: hyphen
Encoding: 45 45 77
Width: 320
Flags: W
LayerCount: 2
Fore
SplineSet
0 245 m 1,0,-1
 270 245 l 1,1,-1
 270 175 l 1,2,-1
 0 175 l 1,3,-1
 0 245 l 1,0,-1
EndSplineSet
EndChar

StartChar: equal
Encoding: 61 61 78
Width: 420
Flags: W
LayerCount: 2
Fore
SplineSet
0 307 m 1,0,-1
 370 307 l 1,1,-1
 370 237 l 1,2,-1
 0 237 l 1,3,-1
 0 307 l 1,0,-1
370 112 m 1,4,-1
 0 112 l 1,5,-1
 0 182 l 1,6,-1
 370 182 l 1,7,-1
 370 112 l 1,4,-1
EndSplineSet
EndChar

StartChar: asciitilde
Encoding: 126 126 79
Width: 400
Flags: W
LayerCount: 2
Fore
SplineSet
294 261 m 0,0,1
 296 265 296 265 296 267 c 2,2,-1
 360 238 l 1,3,-1
 354 226 l 2,4,5
 325 176 325 176 270 161 c 1,6,-1
 270 162 l 1,7,8
 214 147 214 147 165 175 c 0,9,10
 162 177 162 177 159.5 179 c 128,-1,11
 157 181 157 181 154 183 c 2,12,-1
 153 183 l 2,13,14
 152 184 152 184 151 184.5 c 128,-1,15
 150 185 150 185 149 186 c 0,16,17
 123 200 123 200 97 193 c 256,18,19
 71 186 71 186 55 161 c 0,20,21
 54 157 54 157 51 153 c 1,22,-1
 -10 186 l 2,23,24
 -9 190 -9 190 -5 196 c 0,25,26
 23 245 23 245 79 260 c 0,27,28
 134 275 134 275 183 247 c 1,29,-1
 184 246 l 2,30,31
 187 245 187 245 189 244 c 128,-1,32
 191 243 191 243 193 241 c 2,33,-1
 196 239 l 2,34,35
 198 237 198 237 200 236 c 0,36,37
 225 222 225 222 252 229 c 256,38,39
 279 236 279 236 294 261 c 0,0,1
EndSplineSet
EndChar

StartChar: less
Encoding: 60 60 80
Width: 370
Flags: W
LayerCount: 2
Fore
SplineSet
320 350 m 1,0,-1
 285 350 l 1,1,-1
 277 350 l 1,2,-1
 276 350 l 2,3,4
 256 347 256 347 243 338 c 2,5,-1
 73 213 l 1,6,-1
 73 212 l 2,7,8
 72 212 72 212 71.5 211.5 c 128,-1,9
 71 211 71 211 70 211 c 2,10,-1
 70 210 l 1,11,-1
 70 209 l 2,12,13
 71 209 71 209 73 207 c 2,14,-1
 243 82 l 2,15,16
 256 71 256 71 276 70 c 2,17,-1
 285 70 l 1,18,-1
 320 70 l 1,19,-1
 320 0 l 1,20,-1
 285 0 l 1,21,-1
 270 0 l 1,22,23
 230 4 230 4 201 26 c 2,24,-1
 32 150 l 2,25,26
 -2 176 -2 176 0 209 c 1,27,28
 -3 245 -3 245 32 269 c 2,29,-1
 201 394 l 2,30,31
 228 414 228 414 268 419 c 0,32,33
 272 419 272 419 276 419.5 c 128,-1,34
 280 420 280 420 285 420 c 2,35,-1
 320 420 l 1,36,-1
 320 350 l 1,0,-1
EndSplineSet
EndChar

StartChar: greater
Encoding: 62 62 81
Width: 370
Flags: W
LayerCount: 2
Fore
SplineSet
0 350 m 1,0,-1
 0 420 l 1,1,-1
 35 420 l 2,2,3
 40 420 40 420 44 419.5 c 128,-1,4
 48 419 48 419 52 419 c 0,5,6
 92 414 92 414 119 394 c 2,7,-1
 288 269 l 2,8,9
 323 246 323 246 320 209 c 1,10,11
 322 176 322 176 288 150 c 2,12,-1
 119 26 l 2,13,14
 90 4 90 4 50 0 c 1,15,-1
 35 0 l 1,16,-1
 0 0 l 1,17,-1
 0 70 l 1,18,-1
 35 70 l 1,19,-1
 44 70 l 2,20,21
 63 71 63 71 77 82 c 2,22,-1
 247 207 l 1,23,24
 247 207 247 207 249 208 c 0,25,26
 250 208 250 208 250 209 c 2,27,-1
 250 210 l 1,28,-1
 250 211 l 1,29,-1
 249 211 l 2,30,31
 248 211 248 211 248 211.5 c 128,-1,32
 248 212 248 212 247 212 c 2,33,-1
 247 213 l 1,34,-1
 77 338 l 2,35,36
 63 347 63 347 44 350 c 2,37,-1
 43 350 l 1,38,-1
 35 350 l 1,39,-1
 0 350 l 1,0,-1
EndSplineSet
EndChar

StartChar: parenleft
Encoding: 40 40 82
Width: 170
Flags: W
LayerCount: 2
Fore
SplineSet
120 437 m 1,0,-1
 85 437 l 2,1,2
 78 437 78 437 75 433 c 0,3,4
 70 428 70 428 70 422 c 2,5,-1
 70 -3 l 2,6,7
 70 -9 70 -9 74 -13 c 0,8,9
 79 -18 79 -18 85 -18 c 2,10,-1
 120 -18 l 1,11,-1
 120 -88 l 1,12,-1
 85 -88 l 2,13,14
 52 -88 52 -88 25 -63 c 0,15,16
 0 -38 0 -38 0 -3 c 2,17,-1
 0 422 l 2,18,19
 0 458 0 458 25 483 c 0,20,21
 50 507 50 507 85 507 c 2,22,-1
 120 507 l 1,23,-1
 120 437 l 1,0,-1
EndSplineSet
EndChar

StartChar: parenright
Encoding: 41 41 83
Width: 170
Flags: W
LayerCount: 2
Fore
SplineSet
0 437 m 1,0,-1
 0 507 l 1,1,-1
 35 507 l 2,2,3
 69 507 69 507 95 483 c 0,4,5
 120 456 120 456 120 422 c 2,6,-1
 120 -3 l 2,7,8
 120 -36 120 -36 95 -63 c 0,9,10
 68 -88 68 -88 35 -88 c 2,11,-1
 0 -88 l 1,12,-1
 0 -18 l 1,13,-1
 35 -18 l 2,14,15
 40 -18 40 -18 45 -13 c 0,16,17
 50 -10 50 -10 50 -3 c 2,18,-1
 50 422 l 2,19,20
 50 428 50 428 45 433 c 0,21,22
 41 437 41 437 35 437 c 2,23,-1
 0 437 l 1,0,-1
EndSplineSet
EndChar

StartChar: braceleft
Encoding: 123 123 84
Width: 220
Flags: W
LayerCount: 2
Fore
SplineSet
170 437 m 1,0,-1
 135 437 l 2,1,2
 128 437 128 437 125 433 c 0,3,4
 120 428 120 428 120 422 c 2,5,-1
 120 261 l 2,6,7
 120 232 120 232 103 210 c 1,8,9
 120 188 120 188 120 159 c 2,10,-1
 120 -3 l 2,11,12
 120 -10 120 -10 125 -13 c 0,13,14
 128 -18 128 -18 135 -18 c 2,15,-1
 170 -18 l 1,16,-1
 170 -88 l 1,17,-1
 135 -88 l 2,18,19
 102 -88 102 -88 75 -63 c 0,20,21
 50 -38 50 -38 50 -3 c 2,22,-1
 50 159 l 2,23,24
 50 165 50 165 46 170 c 0,25,26
 40 174 40 174 35 174 c 2,27,-1
 0 174 l 1,28,-1
 0 246 l 1,29,-1
 35 246 l 2,30,31
 41 246 41 246 46 251 c 0,32,33
 50 254 50 254 50 261 c 2,34,-1
 50 422 l 2,35,36
 50 458 50 458 75 483 c 0,37,38
 100 507 100 507 135 507 c 2,39,-1
 170 507 l 1,40,-1
 170 437 l 1,0,-1
EndSplineSet
EndChar

StartChar: braceright
Encoding: 125 125 85
Width: 220
Flags: W
LayerCount: 2
Fore
SplineSet
0 437 m 1,0,-1
 0 507 l 1,1,-1
 35 507 l 2,2,3
 69 507 69 507 95 483 c 0,4,5
 120 456 120 456 120 422 c 2,6,-1
 120 261 l 2,7,8
 120 254 120 254 124 251 c 0,9,10
 129 246 129 246 135 246 c 2,11,-1
 170 246 l 1,12,-1
 170 174 l 1,13,-1
 135 174 l 2,14,15
 130 174 130 174 124 170 c 0,16,17
 120 165 120 165 120 159 c 2,18,-1
 120 -3 l 2,19,20
 120 -36 120 -36 95 -63 c 0,21,22
 68 -88 68 -88 35 -88 c 2,23,-1
 0 -88 l 1,24,-1
 0 -18 l 1,25,-1
 35 -18 l 2,26,27
 40 -18 40 -18 45 -13 c 0,28,29
 50 -10 50 -10 50 -3 c 2,30,-1
 50 159 l 2,31,32
 50 190 50 190 66 210 c 1,33,34
 50 230 50 230 50 261 c 2,35,-1
 50 422 l 2,36,37
 50 428 50 428 45 433 c 0,38,39
 41 437 41 437 35 437 c 2,40,-1
 0 437 l 1,0,-1
EndSplineSet
EndChar

StartChar: bracketleft
Encoding: 91 91 86
Width: 170
Flags: W
LayerCount: 2
Fore
SplineSet
120 437 m 1,0,-1
 70 437 l 1,1,-1
 70 -18 l 1,2,-1
 120 -18 l 1,3,-1
 120 -88 l 1,4,-1
 0 -88 l 1,5,-1
 0 507 l 1,6,-1
 120 507 l 1,7,-1
 120 437 l 1,0,-1
EndSplineSet
EndChar

StartChar: bracketright
Encoding: 93 93 87
Width: 170
Flags: W
LayerCount: 2
Fore
SplineSet
0 437 m 1,0,-1
 0 507 l 1,1,-1
 120 507 l 1,2,-1
 120 -88 l 1,3,-1
 0 -88 l 1,4,-1
 0 -18 l 1,5,-1
 50 -18 l 1,6,-1
 50 437 l 1,7,-1
 0 437 l 1,0,-1
EndSplineSet
EndChar

StartChar: slash
Encoding: 47 47 88
Width: 425
Flags: W
LayerCount: 2
Fore
SplineSet
375 401 m 1,0,-1
 74 0 l 1,1,-1
 0 0 l 1,2,-1
 0 18 l 1,3,-1
 302 420 l 1,4,-1
 375 420 l 1,5,-1
 375 401 l 1,0,-1
EndSplineSet
EndChar

StartChar: backslash
Encoding: 92 92 89
Width: 425
Flags: W
LayerCount: 2
Fore
SplineSet
0 401 m 1,0,-1
 0 420 l 1,1,-1
 73 420 l 1,2,-1
 375 18 l 1,3,-1
 375 0 l 1,4,-1
 301 0 l 1,5,-1
 0 401 l 1,0,-1
EndSplineSet
EndChar

StartChar: bar
Encoding: 124 124 90
Width: 120
Flags: W
LayerCount: 2
Fore
SplineSet
70 470 m 1,0,-1
 70 225 l 1,1,-1
 0 225 l 1,2,-1
 0 470 l 1,3,-1
 70 470 l 1,0,-1
0 -50 m 1,4,-1
 0 195 l 1,5,-1
 70 195 l 1,6,-1
 70 -50 l 1,7,-1
 0 -50 l 1,4,-1
EndSplineSet
EndChar

StartChar: quotedbl
Encoding: 34 34 91
Width: 220
Flags: W
LayerCount: 2
Fore
SplineSet
170 420 m 1,0,-1
 170 385 l 2,1,2
 170 335 170 335 132 297 c 2,3,-1
 106 273 l 1,4,-1
 58 324 l 1,5,-1
 84 349 l 2,6,7
 100 364 100 364 100 385 c 2,8,-1
 100 420 l 1,9,-1
 170 420 l 1,0,-1
70 385 m 2,10,11
 70 335 70 335 32 297 c 2,12,-1
 6 273 l 1,13,-1
 -42 324 l 1,14,-1
 -16 349 l 2,15,16
 0 364 0 364 0 385 c 2,17,-1
 0 420 l 1,18,-1
 70 420 l 1,19,-1
 70 385 l 2,10,11
EndSplineSet
EndChar

StartChar: quotesingle
Encoding: 39 39 92
Width: 120
Flags: W
LayerCount: 2
Fore
SplineSet
-16 349 m 2,0,1
 0 364 0 364 0 385 c 2,2,-1
 0 420 l 1,3,-1
 70 420 l 1,4,-1
 70 385 l 2,5,6
 70 335 70 335 32 297 c 2,7,-1
 6 273 l 1,8,-1
 -42 324 l 1,9,-1
 -16 349 l 2,0,1
EndSplineSet
EndChar

StartChar: grave
Encoding: 96 96 93
Width: 120
Flags: W
LayerCount: 2
Fore
SplineSet
111 324 m 1,0,-1
 63 273 l 1,1,-1
 38 297 l 2,2,3
 -1 335 -1 335 0 385 c 2,4,-1
 0 420 l 1,5,-1
 70 420 l 1,6,-1
 70 385 l 2,7,8
 70 364 70 364 86 349 c 2,9,-1
 111 324 l 1,0,-1
EndSplineSet
EndChar

StartChar: asciicircum
Encoding: 94 94 94
Width: 345
Flags: W
LayerCount: 2
Fore
SplineSet
104 445 m 1,0,1
 122 463 122 463 147 463 c 2,2,-1
 148 463 l 2,3,4
 174 463 174 463 192 445 c 2,5,-1
 272 368 l 2,6,7
 292 349 292 349 295 325 c 2,8,-1
 295 324 l 1,9,-1
 295 323 l 1,10,-1
 295 315 l 1,11,-1
 295 280 l 1,12,-1
 225 280 l 1,13,-1
 225 315 l 1,14,-1
 225 316 l 2,15,16
 225 317 225 317 224.5 317 c 128,-1,17
 224 317 224 317 224 318 c 2,18,-1
 148 390 l 1,19,-1
 72 318 l 1,20,-1
 70 316 l 1,21,-1
 70 315 l 1,22,-1
 70 280 l 1,23,-1
 0 280 l 1,24,-1
 0 315 l 2,25,26
 0 321 0 321 1 324 c 0,27,28
 2 349 2 349 23 368 c 2,29,-1
 104 444 l 1,30,-1
 104 445 l 1,31,-1
 104 445 l 1,0,1
EndSplineSet
EndChar

StartChar: numbersign
Encoding: 35 35 95
Width: 520
Flags: W
LayerCount: 2
Fore
SplineSet
0 155 m 1,0,-1
 110 155 l 1,1,-1
 110 265 l 1,2,-1
 0 265 l 1,3,-1
 0 335 l 1,4,-1
 110 335 l 1,5,-1
 110 420 l 1,6,-1
 179 420 l 1,7,-1
 179 335 l 1,8,-1
 290 335 l 1,9,-1
 290 420 l 1,10,-1
 359 420 l 1,11,-1
 359 335 l 1,12,-1
 469 335 l 1,13,-1
 469 265 l 1,14,-1
 359 265 l 1,15,-1
 359 155 l 1,16,-1
 469 155 l 1,17,-1
 469 85 l 1,18,-1
 359 85 l 1,19,-1
 359 0 l 1,20,-1
 290 0 l 1,21,-1
 290 85 l 1,22,-1
 179 85 l 1,23,-1
 179 0 l 1,24,-1
 110 0 l 1,25,-1
 110 85 l 1,26,-1
 0 85 l 1,27,-1
 0 155 l 1,0,-1
290 265 m 1,28,-1
 179 265 l 1,29,-1
 179 155 l 1,30,-1
 290 155 l 1,31,-1
 290 265 l 1,28,-1
EndSplineSet
EndChar

StartChar: fraction
Encoding: 8260 8260 96
Width: 170
Flags: W
LayerCount: 2
Fore
SplineSet
273 601 m 1,0,-1
 -28 200 l 1,1,-1
 -102 200 l 1,2,-1
 -102 218 l 1,3,-1
 200 620 l 1,4,-1
 273 620 l 1,5,-1
 273 601 l 1,0,-1
EndSplineSet
EndChar

StartChar: fi
Encoding: 64257 64257 97
Width: 415
Flags: W
LayerCount: 2
Fore
SplineSet
24 395 m 0,0,1
 49 420 49 420 85 420 c 2,2,-1
 245 420 l 1,3,-1
 245 350 l 1,4,-1
 85 350 l 2,5,6
 78 350 78 350 74 345 c 0,7,8
 70 341 70 341 70 335 c 2,9,-1
 70 270 l 1,10,-1
 195 270 l 1,11,-1
 195 200 l 1,12,-1
 70 200 l 1,13,-1
 70 0 l 1,14,-1
 0 0 l 1,15,-1
 0 200 l 1,16,-1
 -50 200 l 1,17,-1
 -50 270 l 1,18,-1
 0 270 l 1,19,-1
 0 335 l 2,20,21
 0 369 0 369 24 395 c 0,0,1
365 350 m 1,22,-1
 295 350 l 1,23,-1
 295 420 l 1,24,-1
 365 420 l 1,25,-1
 365 350 l 1,22,-1
365 0 m 1,26,-1
 295 0 l 1,27,-1
 295 320 l 1,28,-1
 365 320 l 1,29,-1
 365 0 l 1,26,-1
EndSplineSet
EndChar

StartChar: fl
Encoding: 64258 64258 98
Width: 415
Flags: W
LayerCount: 2
Fore
SplineSet
24 395 m 0,0,1
 49 420 49 420 85 420 c 2,2,-1
 245 420 l 1,3,-1
 245 350 l 1,4,-1
 85 350 l 2,5,6
 78 350 78 350 74 345 c 0,7,8
 70 341 70 341 70 335 c 2,9,-1
 70 270 l 1,10,-1
 195 270 l 1,11,-1
 195 200 l 1,12,-1
 70 200 l 1,13,-1
 70 0 l 1,14,-1
 0 0 l 1,15,-1
 0 200 l 1,16,-1
 -50 200 l 1,17,-1
 -50 270 l 1,18,-1
 0 270 l 1,19,-1
 0 335 l 2,20,21
 0 369 0 369 24 395 c 0,0,1
365 420 m 1,22,-1
 365 0 l 1,23,-1
 295 0 l 1,24,-1
 295 420 l 1,25,-1
 365 420 l 1,22,-1
EndSplineSet
EndChar

StartChar: Zcaron
Encoding: 381 381 99
Width: 520
Flags: W
LayerCount: 2
Fore
SplineSet
452 401 m 1,0,-1
 453 401 l 1,1,2
 470 381 470 381 470 357 c 0,3,4
 473 330 473 330 444 309 c 1,5,-1
 443 308 l 1,6,-1
 92 70 l 1,7,-1
 470 70 l 1,8,-1
 470 0 l 1,9,-1
 63 0 l 2,10,11
 37 0 37 0 19 18 c 1,12,-1
 18 18 l 1,13,14
 0 37 0 37 0 62 c 0,15,16
 -2 90 -2 90 27 110 c 1,17,-1
 28 111 l 1,18,-1
 379 350 l 1,19,-1
 0 350 l 1,20,-1
 0 420 l 1,21,-1
 407 420 l 2,22,23
 434 420 434 420 451 401 c 1,24,-1
 452 401 l 1,0,-1
EndSplineSet
EndChar

StartChar: zcaron
Encoding: 382 382 100
Width: 420
Flags: W
LayerCount: 2
Fore
SplineSet
370 0 m 1,0,-1
 56 0 l 2,1,2
 31 0 31 0 19 12 c 2,3,-1
 16 14 l 1,4,5
 0 30 0 30 0 53 c 0,6,7
 1 83 1 83 24 98 c 2,8,-1
 260 250 l 1,9,-1
 0 250 l 1,10,-1
 0 320 l 1,11,-1
 314 320 l 1,12,-1
 323 320 l 1,13,-1
 326 320 l 1,14,-1
 329 319 l 2,15,16
 346 316 346 316 352 307 c 2,17,-1
 354 305 l 2,18,19
 370 290 370 290 370 268 c 0,20,21
 370 234 370 234 347 222 c 2,22,-1
 110 70 l 1,23,-1
 370 70 l 1,24,-1
 370 0 l 1,0,-1
EndSplineSet
EndChar

StartChar: Ydieresis
Encoding: 376 376 101
Width: 520
Flags: W
LayerCount: 2
Fore
SplineSet
400 420 m 1,0,-1
 470 420 l 1,1,-1
 470 366 l 2,2,3
 470 357 470 357 469 352 c 2,4,-1
 469 351 l 1,5,6
 465 316 465 316 438 288 c 2,7,-1
 270 120 l 1,8,-1
 270 0 l 1,9,-1
 200 0 l 1,10,-1
 200 120 l 1,11,-1
 32 288 l 2,12,13
 6 314 6 314 1 350 c 1,14,-1
 1 351 l 2,15,16
 0 356 0 356 0 366 c 2,17,-1
 0 420 l 1,18,-1
 70 420 l 1,19,-1
 70 366 l 1,20,-1
 70 361 l 1,21,-1
 70 360 l 2,22,23
 71 348 71 348 81 338 c 2,24,-1
 235 184 l 1,25,-1
 388 338 l 2,26,27
 393 343 393 343 395.5 348.5 c 128,-1,28
 398 354 398 354 400 360 c 2,29,-1
 400 366 l 1,30,-1
 400 420 l 1,0,-1
EndSplineSet
EndChar

StartChar: oe
Encoding: 339 339 102
Width: 840
Flags: W
LayerCount: 2
Fore
SplineSet
370 85 m 2,0,1
 370 49 370 49 345 25 c 0,2,3
 321 0 321 0 285 0 c 2,4,-1
 85 0 l 2,5,6
 50 0 50 0 25 25 c 0,7,8
 0 49 0 49 0 85 c 2,9,-1
 0 235 l 2,10,11
 0 270 0 270 25 295 c 256,12,13
 50 320 50 320 85 320 c 2,14,-1
 285 320 l 2,15,16
 321 320 321 320 345 295 c 0,17,18
 370 270 370 270 370 235 c 2,19,-1
 370 85 l 2,0,1
75 245 m 0,20,21
 70 240 70 240 70 235 c 2,22,-1
 70 85 l 2,23,24
 70 80 70 80 74 74 c 0,25,26
 78 70 78 70 85 70 c 2,27,-1
 285 70 l 2,28,29
 292 70 292 70 296 74 c 256,30,31
 300 78 300 78 300 85 c 2,32,-1
 300 235 l 2,33,34
 300 241 300 241 296 245 c 0,35,36
 292 250 292 250 285 250 c 2,37,-1
 85 250 l 2,38,39
 77 250 77 250 75 245 c 0,20,21
705 320 m 2,40,41
 740 320 740 320 765 295 c 0,42,43
 777 282 777 282 783.5 267.5 c 128,-1,44
 790 253 790 253 790 235 c 2,45,-1
 790 210 l 2,46,47
 790 175 790 175 765 150 c 256,48,49
 740 125 740 125 705 125 c 2,50,-1
 490 125 l 1,51,-1
 490 85 l 2,52,53
 490 78 490 78 494 74 c 256,54,55
 498 70 498 70 505 70 c 2,56,-1
 765 70 l 1,57,-1
 765 0 l 1,58,-1
 505 0 l 2,59,60
 469 0 469 0 444 25 c 0,61,62
 420 49 420 49 420 85 c 2,63,-1
 420 235 l 2,64,65
 420 270 420 270 445 295 c 0,66,67
 469 320 469 320 505 320 c 2,68,-1
 705 320 l 2,40,41
494 245 m 0,69,70
 490 241 490 241 490 235 c 2,71,-1
 490 195 l 1,72,-1
 705 195 l 2,73,74
 710 195 710 195 716 199 c 0,75,76
 720 205 720 205 720 210 c 2,77,-1
 720 235 l 2,78,79
 720 239 720 239 719 241 c 128,-1,80
 718 243 718 243 716 245 c 0,81,82
 712 250 712 250 705 250 c 2,83,-1
 505 250 l 2,84,85
 498 250 498 250 494 245 c 0,69,70
EndSplineSet
EndChar

StartChar: H
Encoding: 72 72 103
Width: 520
Flags: W
LayerCount: 2
Fore
SplineSet
400 420 m 1,0,-1
 470 420 l 1,1,-1
 470 0 l 1,2,-1
 400 0 l 1,3,-1
 400 175 l 1,4,-1
 70 175 l 1,5,-1
 70 0 l 1,6,-1
 0 0 l 1,7,-1
 0 420 l 1,8,-1
 70 420 l 1,9,-1
 70 245 l 1,10,-1
 400 245 l 1,11,-1
 400 420 l 1,0,-1
EndSplineSet
EndChar

StartChar: B
Encoding: 66 66 104
Width: 520
Flags: W
LayerCount: 2
Fore
SplineSet
441 391 m 256,0,1
 470 362 470 362 470 323 c 2,2,-1
 470 272 l 2,3,4
 470 236 470 236 447 210 c 1,5,6
 470 182 470 182 470 147 c 2,7,-1
 470 97 l 2,8,9
 470 57 470 57 441 28 c 0,10,11
 413 0 413 0 372 0 c 2,12,-1
 0 0 l 1,13,-1
 0 420 l 1,14,-1
 372 420 l 2,15,16
 412 420 412 420 441 391 c 256,0,1
400 323 m 2,17,18
 400 329 400 329 398 333 c 128,-1,19
 396 337 396 337 392 342 c 1,20,-1
 391 342 l 1,21,22
 384 350 384 350 372 350 c 2,23,-1
 70 350 l 1,24,-1
 70 245 l 1,25,-1
 374 245 l 2,26,27
 383 245 383 245 391 253 c 0,28,29
 400 260 400 260 400 272 c 2,30,-1
 400 323 l 2,17,18
391 78 m 0,31,32
 400 85 400 85 400 97 c 2,33,-1
 400 147 l 2,34,35
 400 157 400 157 392 167 c 1,36,-1
 391 167 l 1,37,38
 383 175 383 175 374 175 c 2,39,-1
 70 175 l 1,40,-1
 70 70 l 1,41,-1
 372 70 l 2,42,43
 384 70 384 70 391 78 c 0,31,32
EndSplineSet
EndChar
